<?xml version="1.0" encoding="utf-8"?>
<!-- Generator: Adobe Illustrator 23.1.0, SVG Export Plug-In . SVG Version: 6.00 Build 0)  -->
<svg version="1.1" id="Layer_1" xmlns="http://www.w3.org/2000/svg" xmlns:xlink="http://www.w3.org/1999/xlink" x="0px" y="0px"
	 viewBox="0 0 800 800" style="enable-background:new 0 0 800 800;" xml:space="preserve">
<style type="text/css">
	.st0{fill:#0B7F9E;}
	.st1{fill:#0B6382;}
	.st2{fill:#00233F;}
	.st3{fill:#022728;}
	.st4{fill:#00FFF2;}
	.st5{fill:#16D8D8;}
	.st6{fill:#EBFFFD;}
	.st7{fill:#02405B;}
	.st8{fill:none;}
	.st9{fill:#4387A1;}
</style>
<path class="st0" d="M196.2,462.6c0,40.1-21.6,82.7-45.5,82.7s-45.5-42.4-45.5-82.7s21.9-49.2,45.5-49.2S196.2,422.4,196.2,462.6z"
	/>
<path class="st1" d="M150.7,413.3c23.7,0,45.5,9.1,45.5,49.2s-21.6,82.7-45.5,82.7s-45.5-42.4-45.5-82.7"/>
<path class="st2" d="M150.7,413.3c23.7,0,45.5,9.1,45.5,49.2s-21.6,82.7-45.5,82.7"/>
<path class="st3" d="M140.1,436.1c0,3.9-3.2,10-7.3,10c-3.9,0-7.3-5.9-7.3-10c0-3.9,3.2-7.3,7.3-7.3
	C136.7,428.9,140.1,432,140.1,436.1z"/>
<ellipse class="st4" cx="132.8" cy="436.1" rx="7.3" ry="7.3"/>
<path class="st5" d="M127.5,430.9c2.8-2.8,7.3-2.8,10.2,0c2.8,2.8,2.8,7.3,0,10.2"/>
<ellipse class="st4" cx="132.8" cy="436.1" rx="4.1" ry="4.1"/>
<path class="st5" d="M132.8,440.2c-2.3,0-4.1-1.8-4.1-4.1s1.8-4.1,4.1-4.1"/>
<g>
	<ellipse class="st6" cx="129.6" cy="433" rx="2.5" ry="2.5"/>
	<ellipse class="st6" cx="136.9" cy="439.8" rx="1.2" ry="1.1"/>
</g>
<path class="st1" d="M176,436.1c0,3.9-3.2,10-7.3,10c-3.9,0-7.3-5.9-7.3-10c0-3.9,3.2-7.3,7.3-7.3C172.8,428.9,176,432,176,436.1z"
	/>
<ellipse class="st4" cx="168.7" cy="436.1" rx="7.3" ry="7.3"/>
<path class="st5" d="M163.7,430.9c2.8-2.8,7.3-2.8,10.2,0c2.8,2.8,2.8,7.3,0,10.2"/>
<ellipse class="st4" cx="168.7" cy="436.1" rx="4.1" ry="4.1"/>
<path class="st5" d="M168.7,440.2c-2.3,0-4.1-1.8-4.1-4.1s1.8-4.1,4.1-4.1"/>
<g>
	<ellipse class="st6" cx="165.5" cy="433" rx="2.5" ry="2.5"/>
	<ellipse class="st6" cx="172.8" cy="439.8" rx="1.2" ry="1.1"/>
</g>
<path class="st4" d="M133,453.7l-9.6-11.4l0,0H106c-0.2,2.3-0.5,4.5-0.5,4.5h16.2l10.9,11.4l0,0l0,0h15.9v-4.5H133z"/>
<polyline class="st5" points="105.3,446.8 121.7,446.8 132.6,458.2 132.6,458.2 132.6,458.2 148.5,458.2 148.5,456.9 132.8,455.5 
	123.5,444.5 123.5,444.5 "/>
<path class="st4" d="M168.5,453.7l9.6-11.4l0,0h17.5c0.2,2.3,0.5,4.5,0.5,4.5h-16.2L169,458.2l0,0l0,0h-15.9v-4.5H168.5z"/>
<polyline class="st5" points="196.2,446.8 179.9,446.8 168.9,458.2 168.9,458.2 168.9,458.2 153.1,458.2 153.1,456.9 168.7,455.5 
	178,444.5 178,444.5 "/>
<ellipse class="st4" cx="150.7" cy="455.3" rx="4.6" ry="4.5"/>
<path class="st5" d="M155.3,455.3c0,2.5-2,4.5-4.6,4.5c-2.5,0-4.6-2.1-4.6-4.5"/>
<path class="st0" d="M105.5,462.8l-0.2-0.5c0,0.2-0.2,0.2-0.2,0.5c0,26.7,9.1,53.8,22.7,69.3v-61.5l-8.4-7.8H105.5L105.5,462.8z"/>
<path class="st2" d="M105.5,461.2l-0.2,0.5c0,0.2-0.2,0.7-0.2,0.9c0,26.7,9.1,54.2,22.7,69.7v-62.7"/>
<path class="st0" d="M195.7,462.8l0.2-0.5c0,0.2,0.2,0.2,0.2,0.5c0,26.7-9.1,52.6-22.7,68.3v-60.6l8.4-7.8H195.7z"/>
<path class="st7" d="M196,461.2v0.5c0,0.2,0.2,0.7,0.2,0.9c0,26.7-9.1,54.2-22.7,69.7v-62.7"/>
<ellipse class="st1" cx="93" cy="500.2" rx="11.6" ry="11.6"/>
<g>
	<path class="st2" d="M93,488.8c6.3,0,11.6,5.2,11.6,11.6c0,6.4-5.3,11.6-11.6,11.6"/>
	<ellipse class="st2" cx="93" cy="483.7" rx="2.8" ry="2.8"/>
</g>
<polyline class="st5" points="93.9,481 93.9,469.6 100.7,469.6 100.7,460.5 105.3,460.5 "/>
<ellipse transform="matrix(0.9969 -7.869001e-02 7.869001e-02 0.9969 -36.8938 9.8421)" class="st0" cx="106.4" cy="473" rx="3.9" ry="11.4"/>
<ellipse transform="matrix(0.9969 -7.860757e-02 7.860757e-02 0.9969 -36.8594 9.7213)" class="st1" cx="105" cy="473" rx="1.6" ry="6.8"/>
<g>
	<ellipse class="st5" cx="114.8" cy="473.5" rx="0.9" ry="0.9"/>
	<ellipse class="st5" cx="118.5" cy="472.3" rx="0.9" ry="0.9"/>
	<ellipse class="st5" cx="122.1" cy="471.4" rx="0.9" ry="0.9"/>
</g>
<path class="st4" d="M98.5,502.6c0,0.7-0.5,1.1-1.2,1.1h-9.1c-0.7,0-1.2-0.5-1.2-1.1l0,0c0-0.7,0.5-1.1,1.2-1.1h9.1
	C98,501.5,98.5,502,98.5,502.6L98.5,502.6z"/>
<ellipse class="st1" cx="208.5" cy="500.2" rx="11.6" ry="11.6"/>
<g>
	<path class="st2" d="M208.5,488.8c-6.3,0-11.6,5.2-11.6,11.6c0,6.4,5.3,11.6,11.6,11.6"/>
	<ellipse class="st2" cx="208.5" cy="483.7" rx="2.8" ry="2.8"/>
</g>
<polyline class="st5" points="207.6,481 207.6,469.6 200.8,469.6 200.8,460.5 196.2,460.5 "/>
<ellipse transform="matrix(7.869002e-02 -0.9969 0.9969 7.869002e-02 -291.7893 630.4739)" class="st0" cx="195.2" cy="473.1" rx="11.4" ry="3.9"/>
<ellipse transform="matrix(7.860757e-02 -0.9969 0.9969 7.860757e-02 -290.7758 631.7953)" class="st1" cx="196.4" cy="473.2" rx="6.8" ry="1.6"/>
<g>
	<ellipse class="st5" cx="186.7" cy="473.5" rx="0.9" ry="0.9"/>
	<ellipse class="st5" cx="183.1" cy="472.3" rx="0.9" ry="0.9"/>
	<ellipse class="st5" cx="179.4" cy="471.4" rx="0.9" ry="0.9"/>
</g>
<path class="st4" d="M214.4,502.6c0-0.7-0.5-1.1-1.2-1.1h-9.1c-0.7,0-1.2,0.5-1.2,1.1l0,0c0,0.7,0.5,1.1,1.2,1.1h9.1
	C214,503.8,214.4,503.4,214.4,502.6L214.4,502.6z"/>
<path class="st0" d="M417.6,464.3c0,40.1-21.6,82.7-45.5,82.7c-23.9,0-45.5-42.4-45.5-82.7s21.9-49.2,45.5-49.2
	C395.8,415.1,417.6,424.2,417.6,464.3z"/>
<path class="st1" d="M372.2,415c23.7,0,45.5,9.1,45.5,49.2S396.1,547,372.2,547c-23.9,0-45.5-42.4-45.5-82.7"/>
<path class="st2" d="M372.2,415c23.7,0,45.5,9.1,45.5,49.2S396.1,547,372.2,547"/>
<path class="st3" d="M361.5,437.8c0,3.9-3.2,10-7.3,10c-3.9,0-7.3-5.9-7.3-10c0-3.9,3.2-7.3,7.3-7.3
	C358.1,430.6,361.5,433.7,361.5,437.8z"/>
<ellipse class="st4" cx="354.2" cy="437.8" rx="7.3" ry="7.3"/>
<path class="st5" d="M349,432.6c2.8-2.8,7.3-2.8,10.2,0c2.8,2.8,2.8,7.3,0,10.2"/>
<ellipse class="st4" cx="354.2" cy="437.8" rx="4.1" ry="4.1"/>
<path class="st5" d="M354.2,442c-2.3,0-4.1-1.8-4.1-4.1s1.8-4.1,4.1-4.1"/>
<g>
	<ellipse class="st6" cx="351.1" cy="434.7" rx="2.5" ry="2.5"/>
	<ellipse class="st6" cx="358.3" cy="441.5" rx="1.2" ry="1.1"/>
</g>
<path class="st1" d="M397.4,437.8c0,3.9-3.2,10-7.3,10c-3.9,0-7.3-5.9-7.3-10c0-3.9,3.2-7.3,7.3-7.3
	C394.2,430.6,397.4,433.7,397.4,437.8z"/>
<ellipse class="st4" cx="390.1" cy="437.8" rx="7.3" ry="7.3"/>
<path class="st5" d="M385.1,432.6c2.8-2.8,7.3-2.8,10.2,0c2.8,2.8,2.8,7.3,0,10.2"/>
<ellipse class="st4" cx="390.1" cy="437.8" rx="4.1" ry="4.1"/>
<path class="st5" d="M390.1,442c-2.3,0-4.1-1.8-4.1-4.1s1.8-4.1,4.1-4.1"/>
<g>
	<ellipse class="st6" cx="386.9" cy="434.7" rx="2.5" ry="2.5"/>
	<ellipse class="st6" cx="394.2" cy="441.5" rx="1.2" ry="1.1"/>
</g>
<path class="st4" d="M354.5,455.4l-9.6-11.4l0,0h-17.5c-0.2,2.3-0.5,4.5-0.5,4.5h16.2l10.9,11.4l0,0l0,0h15.9v-4.5H354.5z"/>
<polyline class="st5" points="326.7,448.5 343.1,448.5 354,459.9 354,459.9 354,459.9 369.9,459.9 369.9,458.6 354.2,457.2 
	344.9,446.2 344.9,446.2 "/>
<path class="st4" d="M389.9,455.4l9.6-11.4l0,0H417c0.2,2.3,0.5,4.5,0.5,4.5h-16.2l-10.9,11.4l0,0l0,0h-15.9v-4.5H389.9z"/>
<polyline class="st5" points="417.6,448.5 401.3,448.5 390.3,459.9 390.3,459.9 390.3,459.9 374.5,459.9 374.5,458.6 390.1,457.2 
	399.5,446.2 399.5,446.2 "/>
<ellipse class="st4" cx="372.2" cy="457" rx="4.6" ry="4.5"/>
<path class="st5" d="M376.7,457c0,2.5-2,4.5-4.6,4.5c-2.5,0-4.6-2.1-4.6-4.5"/>
<path class="st0" d="M326.9,464.5l-0.2-0.5c0,0.2-0.2,0.2-0.2,0.5c0,26.7,9.1,53.8,22.7,69.3v-61.5l-8.4-7.8H326.9L326.9,464.5z"/>
<path class="st2" d="M326.9,462.9l-0.2,0.5c0,0.2-0.2,0.7-0.2,0.9c0,26.7,9.1,54.2,22.7,69.7v-62.7"/>
<path class="st0" d="M417.2,464.5l0.2-0.5c0,0.2,0.2,0.2,0.2,0.5c0,26.7-9.1,52.6-22.7,68.3v-60.6l8.4-7.8H417.2z"/>
<path class="st7" d="M417.4,462.9v0.5c0,0.2,0.2,0.7,0.2,0.9c0,26.7-9.1,54.2-22.7,69.7v-62.7"/>
<ellipse class="st1" cx="314.4" cy="501.9" rx="11.6" ry="11.6"/>
<g>
	<path class="st2" d="M314.4,490.5c6.3,0,11.6,5.2,11.6,11.6c0,6.4-5.3,11.6-11.6,11.6"/>
	<ellipse class="st2" cx="314.4" cy="485.4" rx="2.8" ry="2.8"/>
</g>
<polyline class="st5" points="315.3,482.7 315.3,471.3 322.1,471.3 322.1,462.2 326.7,462.2 "/>
<ellipse transform="matrix(0.9969 -7.869001e-02 7.869001e-02 0.9969 -36.3413 27.2713)" class="st0" cx="327.9" cy="474.7" rx="3.9" ry="11.4"/>
<ellipse transform="matrix(0.9969 -7.860757e-02 7.860757e-02 0.9969 -36.3082 27.1322)" class="st1" cx="326.5" cy="474.7" rx="1.6" ry="6.8"/>
<g>
	<ellipse class="st5" cx="336.2" cy="475.2" rx="0.9" ry="0.9"/>
	<ellipse class="st5" cx="339.9" cy="474" rx="0.9" ry="0.9"/>
	<ellipse class="st5" cx="343.6" cy="473.2" rx="0.9" ry="0.9"/>
</g>
<path class="st4" d="M319.9,504.4c0,0.7-0.5,1.1-1.2,1.1h-9.1c-0.7,0-1.2-0.5-1.2-1.1l0,0c0-0.7,0.5-1.1,1.2-1.1h9.1
	C319.4,503.2,319.9,503.7,319.9,504.4L319.9,504.4z"/>
<ellipse class="st1" cx="429.9" cy="501.9" rx="11.6" ry="11.6"/>
<g>
	<path class="st2" d="M429.9,490.5c-6.3,0-11.6,5.2-11.6,11.6c0,6.4,5.3,11.6,11.6,11.6"/>
	<ellipse class="st2" cx="429.9" cy="485.4" rx="2.8" ry="2.8"/>
</g>
<polyline class="st5" points="429,482.7 429,471.3 422.2,471.3 422.2,462.2 417.6,462.2 "/>
<ellipse transform="matrix(7.869002e-02 -0.9969 0.9969 7.869002e-02 -89.4876 852.7812)" class="st0" cx="416.6" cy="474.8" rx="11.4" ry="3.9"/>
<ellipse transform="matrix(7.860757e-02 -0.9969 0.9969 7.860757e-02 -88.4559 854.1042)" class="st1" cx="417.8" cy="474.9" rx="6.8" ry="1.6"/>
<g>
	<ellipse class="st5" cx="408.1" cy="475.2" rx="0.9" ry="0.9"/>
	<ellipse class="st5" cx="404.5" cy="474" rx="0.9" ry="0.9"/>
	<ellipse class="st5" cx="400.8" cy="473.2" rx="0.9" ry="0.9"/>
</g>
<path class="st4" d="M435.9,504.4c0-0.7-0.5-1.1-1.2-1.1h-9.1c-0.7,0-1.2,0.5-1.2,1.1l0,0c0,0.7,0.5,1.1,1.2,1.1h9.1
	C435.4,505.5,435.9,505.1,435.9,504.4L435.9,504.4z"/>
<rect x="-642" y="450" class="st8" width="472" height="89.5"/>
<g>
	<g>
		<path class="st9" d="M106.5,622.2c-2.6,0-4.9-0.6-7.5-1.7c-14.8-3.9-22.7-18.7-31.5-67.2c-7.5-39.7-14.8-89.3-21.3-128.9
			c-4.1-24.8-6.7-29.8-17.1-29.8h-7.2v122.9c0,66.7,2.3,70.5,18.4,76.6v22h-54.1v-22C3,587,4.5,584.2,4.5,517.5V205.6
			c0-66.7-2.3-68.9-18.3-76v-22h51.7c14.8,0,24.7,7.2,32.5,26.5c8.4,20.4,13.7,55.7,13.7,103c0,67.2-11.1,109.7-26.2,134.5
			c3.7,24.2,12.3,76.6,18.4,111.9c7.5,41.3,11.3,61.2,16,80.5c5.5,22.6,10.1,31.4,14.8,35.8L106.5,622.2z M31.7,367.6
			c10.5,0,17.2-6.1,22.2-22.6c7.9-22.6,11.1-54,11.1-96.4c0-83.8-14.3-114.1-30-114.1c-5.9,0-9.3,3.3-10.7,7.7
			c-1.8,5.5-2.4,13.2-2.4,33.6v191.8L31.7,367.6L31.7,367.6z"/>
		<path class="st9" d="M254.9,270.7c3.5-5.5,6.6-7.7,9-7.7c21.6,0,39.9,72.7,39.9,165.9c0,105.8-23.5,197.3-50,196.2
			c-8.7,0-20.1-7.7-31.2-28.1c0-20.4,0-41.3,0-62.8V157.1c0-48.5-0.6-52.9-13.6-57.3V79.5c9.6-5,22.1-16.5,29.6-26.5
			c0,30.3,0,61.7,0,93.1v151.5L254.9,270.7z M238.4,525.2c0,12.7,0.2,19.3,1.1,27.6c2.4,19.3,10.4,42.4,20.1,42.4
			c17.4,0,26.2-57.9,26.2-146c0-89.3-14-141.6-30.8-141.6c-5.9,0-12.5,7.2-16.5,14.9v202.8H238.4z"/>
		<path class="st9" d="M494.5,340.6c19.5,12.7,35.2,48.5,35.2,124.5c0,52.9-7.8,95.3-19.7,120.7c-10.5,22.6-20.9,30.3-35,30.3h-49.8
			v-22c17.2-6.1,18.3-13.2,18.3-74.9V205.6c0-65-1.8-70.5-18.3-76v-22h53c15.2,0,24.7,9.9,31.2,27.6c7.2,18.7,11.9,47.9,11.9,87.6
			C521.4,296,505.7,329.6,494.5,340.6z M471.1,331.3c22.2,0,31.4-34.2,31.4-98.6c0-54.6-8.7-97-28.2-97c-5.6,0-9.3,2.2-11.3,7.7
			c-1.7,5-2.3,13.2-2.3,38.6v149.3H471.1z M460.8,517c0,56.2,3.5,70.5,17.8,70.5c15.8,0,31.2-33.1,31.2-115.2
			c0-79.9-14.6-114.1-39.3-114.1h-9.8V517z"/>
		<path class="st9" d="M608.9,625c-3,0-7.5-6.1-9.6-14.9c-2.6-9.9-3.8-20.9-4.9-35.3c-8.1,20.9-18,50.1-24.4,50.1
			c-14.3,0-24.7-46.3-24.7-96.4c0-38.6,5.5-63.4,16.6-78.2c12.3-16.5,27.6-36.9,32-50.7v-15.4c0-55.7-7.3-87.6-17.8-87.6
			c-4.7,0-7.5,8.8-9.6,18.2c-2.3,11-3.7,28.1-5.5,50.7c-1.1,12.7-2.9,18.2-5.9,18.2c-3.8,0-9-15.4-9-34.2c0-11,2.6-20.4,6.7-31.4
			c5.9-16.5,17.7-45.2,29.3-54.6c6.1,0,12.3,7.2,17.1,20.9c7.2,23.7,10.4,50.1,10.4,90.9v151c0,35.8,3.5,46.8,7.2,46.8
			c2.4,0,5-3.9,7.3-8.8l2,22L608.9,625z M594.1,427.2c-4.4,8.8-14.2,24.8-18.9,33.1c-7.8,13.2-12.3,28.1-12.3,57.3
			c0,41.3,8.1,60.1,14.6,60.1c5.3,0,12.5-12.7,16.6-28.1C594.1,512.6,594.1,464.1,594.1,427.2z"/>
		<path class="st9" d="M692.9,615.6v-22c11.7-5,13-9.9,13-63.4V401.3c0-54.6-5-91.5-18.4-91.5c-8.4,0-16.2,18.7-22.6,40.8v182.9
			c0,54,1.2,55.7,13.1,60.1v22h-43.7v-22c13.4-5.5,14.6-8.8,14.6-60.1V372.6c0-50.7-1.4-52.9-12.3-60.1v-20.4
			c9.9-6.1,19.8-16.5,28.3-31.4c0,18.2,0,43,0,61.7c4.1-11,8.5-22.6,13.7-35.8c5.6-14.3,11-23.7,16.8-23.7
			c16.2,0,26.4,46.3,26.4,121.8v148.8c0,52.9,1.2,55.7,13,60.1v22H692.9z"/>
		<path class="st9" d="M845.2,615.6c-11,0-22.9,0.6-27.1,1.7c-1.2-5.5-33.1-151-34.3-155.4c-2.9-12.7-4.1-16.5-5.9-16.5
			c-0.8,0-2.4,0-3.7,1.7v87.1c0,52.3,1.1,55.7,14.2,60.1v22h-44.8v-22c13.6-5,14.6-9.9,14.6-60.1V159.9c0-50.7-1.4-52.3-14-59.5V80
			c10.5-3.9,22.7-15.4,30-26.5c0,33.6,0,65.6,0,99.2v273.9c6.1-5.5,9.9-14.9,13-27.6c4.7-18.2,12.2-52.9,15.5-72.7
			c4.3-22.6,2.6-29.2-7.2-32v-22l41.8-7.2v20.9c-14.2,8.8-18.3,14.9-27,50.1c-3.8,15.4-13,55.7-17.2,76c4.1,22,24.7,112.4,31.4,140
			c9.8,37.5,12.5,39.7,20.4,41.3v22H845.2z"/>
	</g>
</g>
</svg>
